<svg width="1442" height="632" viewBox="0 0 1442 632" fill="none" xmlns="http://www.w3.org/2000/svg">
<rect x="1" y="1.30859" width="1440" height="630" fill="#F5F5F5"/>
<path opacity="0.05" d="M990.447 181.281H945.357V226.27H990.447V181.281Z" fill="black" fill-opacity="0.3"/>
<path opacity="0.05" d="M945.357 226.273H900.268V271.262H945.357V226.273Z" fill="black" fill-opacity="0.3"/>
<path opacity="0.05" d="M1080.63 91.3047H1035.54V136.294H1080.63V91.3047Z" fill="black" fill-opacity="0.3"/>
<path opacity="0.05" d="M1080.63 136.293H1035.54V181.282H1080.63V136.293Z" fill="black" fill-opacity="0.3"/>
<path opacity="0.05" d="M1080.63 181.281H1035.54V226.27H1080.63V181.281Z" fill="black" fill-opacity="0.3"/>
<path opacity="0.05" d="M1035.54 226.273H990.447V271.262H1035.54V226.273Z" fill="black" fill-opacity="0.3"/>
<path opacity="0.1" d="M1080.63 226.273H1035.54V271.262H1080.63V226.273Z" fill="black" fill-opacity="0.3"/>
<path opacity="0.05" d="M1125.71 91.3047H1080.63V136.294H1125.71V91.3047Z" fill="black" fill-opacity="0.3"/>
<path opacity="0.05" d="M1125.71 136.293H1080.63V181.282H1125.71V136.293Z" fill="black" fill-opacity="0.3"/>
<path opacity="0.05" d="M1170.8 136.293H1125.71V181.282H1170.8V136.293Z" fill="black" fill-opacity="0.3"/>
<path opacity="0.05" d="M1170.8 181.281H1125.71V226.27H1170.8V181.281Z" fill="black" fill-opacity="0.3"/>
<path opacity="0.1" d="M1125.71 226.273H1080.63V271.262H1125.71V226.273Z" fill="black" fill-opacity="0.3"/>
<path opacity="0.1" d="M1170.8 226.273H1125.71V271.262H1170.8V226.273Z" fill="black" fill-opacity="0.3"/>
<path opacity="0.05" d="M1260.98 136.293H1215.89V181.282H1260.98V136.293Z" fill="black" fill-opacity="0.3"/>
<path opacity="0.05" d="M1215.89 181.281H1170.8V226.27H1215.89V181.281Z" fill="black" fill-opacity="0.3"/>
<path opacity="0.05" d="M1260.98 181.281H1215.89V226.27H1260.98V181.281Z" fill="black" fill-opacity="0.3"/>
<path opacity="0.1" d="M1260.98 226.273H1215.89V271.262H1260.98V226.273Z" fill="black" fill-opacity="0.3"/>
<path opacity="0.05" d="M1351.16 136.293H1306.07V181.282H1351.16V136.293Z" fill="black" fill-opacity="0.3"/>
<path opacity="0.05" d="M1306.07 181.281H1260.98V226.27H1306.07V181.281Z" fill="black" fill-opacity="0.3"/>
<path opacity="0.05" d="M1351.16 181.281H1306.07V226.27H1351.16V181.281Z" fill="black" fill-opacity="0.3"/>
<path opacity="0.2" d="M1306.07 226.273H1260.98V271.262H1306.07V226.273Z" fill="black" fill-opacity="0.3"/>
<path opacity="0.05" d="M1080.63 136.293H1035.54V181.282H1080.63V136.293Z" fill="black" fill-opacity="0.3"/>
<path opacity="0.05" d="M1396.25 136.293H1351.16V181.282H1396.25V136.293Z" fill="black" fill-opacity="0.3"/>
<path opacity="0.05" d="M1441.34 136.293H1396.25V181.282H1441.34V136.293Z" fill="black" fill-opacity="0.3"/>
<path opacity="0.05" d="M1396.25 181.281H1351.16V226.27H1396.25V181.281Z" fill="black" fill-opacity="0.3"/>
<path opacity="0.05" d="M1441.34 181.281H1396.25V226.27H1441.34V181.281Z" fill="black" fill-opacity="0.3"/>
<path opacity="0.2" d="M1396.25 226.273H1351.16V271.262H1396.25V226.273Z" fill="black" fill-opacity="0.3"/>
<path opacity="0.05" d="M900.268 361.238H855.179V406.227H900.268V361.238Z" fill="black" fill-opacity="0.3"/>
<path opacity="0.05" d="M990.447 271.262H945.357V316.251H990.447V271.262Z" fill="black" fill-opacity="0.3"/>
<path opacity="0.05" d="M945.357 316.25H900.268V361.239H945.357V316.25Z" fill="black" fill-opacity="0.3"/>
<path opacity="0.05" d="M990.447 316.25H945.357V361.239H990.447V316.25Z" fill="black" fill-opacity="0.3"/>
<path opacity="0.05" d="M945.357 361.238H900.268V406.227H945.357V361.238Z" fill="black" fill-opacity="0.3"/>
<path opacity="0.05" d="M990.447 361.238H945.357V406.227H990.447V361.238Z" fill="black" fill-opacity="0.3"/>
<path opacity="0.05" d="M945.357 406.227H900.268V451.216H945.357V406.227Z" fill="black" fill-opacity="0.3"/>
<path opacity="0.05" d="M1035.54 271.262H990.447V316.251H1035.54V271.262Z" fill="black" fill-opacity="0.3"/>
<path opacity="0.1" d="M1080.63 271.262H1035.54V316.251H1080.63V271.262Z" fill="black" fill-opacity="0.3"/>
<path opacity="0.1" d="M1035.54 316.25H990.447V361.239H1035.54V316.25Z" fill="black" fill-opacity="0.3"/>
<path opacity="0.05" d="M1080.63 316.25H1035.54V361.239H1080.63V316.25Z" fill="black" fill-opacity="0.3"/>
<path opacity="0.1" d="M1035.54 361.238H990.447V406.227H1035.54V361.238Z" fill="black" fill-opacity="0.3"/>
<path opacity="0.2" d="M1080.63 361.238H1035.54V406.227H1080.63V361.238Z" fill="black" fill-opacity="0.3"/>
<path opacity="0.05" d="M1035.54 406.227H990.447V451.216H1035.54V406.227Z" fill="black" fill-opacity="0.3"/>
<path opacity="0.2" d="M1080.63 406.227H1035.54V451.216H1080.63V406.227Z" fill="black" fill-opacity="0.3"/>
<path opacity="0.05" d="M810.089 451.219H765V496.208H810.089V451.219Z" fill="black" fill-opacity="0.3"/>
<path opacity="0.05" d="M900.268 496.207H855.179V541.196H900.268V496.207Z" fill="black" fill-opacity="0.3"/>
<path opacity="0.05" d="M900.268 541.195H855.179V586.184H900.268V541.195Z" fill="black" fill-opacity="0.3"/>
<path opacity="0.05" d="M855.179 586.184H810.089V631.173H855.179V586.184Z" fill="black" fill-opacity="0.3"/>
<path opacity="0.05" d="M990.447 451.219H945.357V496.208H990.447V451.219Z" fill="black" fill-opacity="0.3"/>
<path opacity="0.05" d="M945.357 496.207H900.268V541.196H945.357V496.207Z" fill="black" fill-opacity="0.3"/>
<path opacity="0.05" d="M945.357 541.195H900.268V586.184H945.357V541.195Z" fill="black" fill-opacity="0.3"/>
<path opacity="0.05" d="M990.447 541.195H945.357V586.184H990.447V541.195Z" fill="black" fill-opacity="0.3"/>
<path opacity="0.05" d="M990.447 586.184H945.357V631.173H990.447V586.184Z" fill="black" fill-opacity="0.3"/>
<path opacity="0.05" d="M1035.54 451.219H990.447V496.208H1035.54V451.219Z" fill="black" fill-opacity="0.3"/>
<path opacity="0.05" d="M1080.63 451.219H1035.54V496.208H1080.63V451.219Z" fill="black" fill-opacity="0.3"/>
<path opacity="0.15" d="M1035.54 496.207H990.447V541.196H1035.54V496.207Z" fill="black" fill-opacity="0.3"/>
<path opacity="0.1" d="M1080.63 496.207H1035.54V541.196H1080.63V496.207Z" fill="black" fill-opacity="0.3"/>
<path opacity="0.1" d="M1035.54 541.195H990.447V586.184H1035.54V541.195Z" fill="black" fill-opacity="0.3"/>
<path opacity="0.15" d="M1080.63 541.195H1035.54V586.184H1080.63V541.195Z" fill="black" fill-opacity="0.3"/>
<path opacity="0.1" d="M1035.54 586.184H990.447V631.173H1035.54V586.184Z" fill="black" fill-opacity="0.3"/>
<path opacity="0.2" d="M1080.63 586.184H1035.54V631.173H1080.63V586.184Z" fill="black" fill-opacity="0.3"/>
<path opacity="0.05" d="M1125.71 271.262H1080.63V316.251H1125.71V271.262Z" fill="black" fill-opacity="0.3"/>
<path opacity="0.2" d="M1170.8 271.262H1125.71V316.251H1170.8V271.262Z" fill="black" fill-opacity="0.3"/>
<path opacity="0.1" d="M1125.71 316.25H1080.63V361.239H1125.71V316.25Z" fill="black" fill-opacity="0.3"/>
<path opacity="0.2" d="M1170.8 316.25H1125.71V361.239H1170.8V316.25Z" fill="black" fill-opacity="0.3"/>
<path opacity="0.15" d="M1125.71 361.238H1080.63V406.227H1125.71V361.238Z" fill="black" fill-opacity="0.3"/>
<path opacity="0.15" d="M1170.8 361.238H1125.71V406.227H1170.8V361.238Z" fill="black" fill-opacity="0.3"/>
<path opacity="0.2" d="M1125.71 406.227H1080.63V451.216H1125.71V406.227Z" fill="black" fill-opacity="0.3"/>
<path opacity="0.1" d="M1170.8 406.227H1125.71V451.216H1170.8V406.227Z" fill="black" fill-opacity="0.3"/>
<path opacity="0.15" d="M1215.89 271.262H1170.8V316.251H1215.89V271.262Z" fill="black" fill-opacity="0.3"/>
<path opacity="0.2" d="M1260.98 271.262H1215.89V316.251H1260.98V271.262Z" fill="black" fill-opacity="0.3"/>
<path opacity="0.1" d="M1215.89 316.25H1170.8V361.239H1215.89V316.25Z" fill="black" fill-opacity="0.3"/>
<path opacity="0.2" d="M1260.98 316.25H1215.89V361.239H1260.98V316.25Z" fill="black" fill-opacity="0.3"/>
<path opacity="0.2" d="M1215.89 361.238H1170.8V406.227H1215.89V361.238Z" fill="black" fill-opacity="0.3"/>
<path opacity="0.15" d="M1260.98 361.238H1215.89V406.227H1260.98V361.238Z" fill="black" fill-opacity="0.3"/>
<path opacity="0.1" d="M1215.89 406.227H1170.8V451.216H1215.89V406.227Z" fill="black" fill-opacity="0.3"/>
<path opacity="0.15" d="M1260.98 406.227H1215.89V451.216H1260.98V406.227Z" fill="black" fill-opacity="0.3"/>
<path opacity="0.1" d="M1306.07 271.262H1260.98V316.251H1306.07V271.262Z" fill="black" fill-opacity="0.3"/>
<path opacity="0.05" d="M1351.16 271.262H1306.07V316.251H1351.16V271.262Z" fill="black" fill-opacity="0.3"/>
<path opacity="0.1" d="M1306.07 316.25H1260.98V361.239H1306.07V316.25Z" fill="black" fill-opacity="0.3"/>
<path opacity="0.15" d="M1351.16 316.25H1306.07V361.239H1351.16V316.25Z" fill="black" fill-opacity="0.3"/>
<path opacity="0.15" d="M1306.07 361.238H1260.98V406.227H1306.07V361.238Z" fill="black" fill-opacity="0.3"/>
<path opacity="0.2" d="M1351.16 361.238H1306.07V406.227H1351.16V361.238Z" fill="black" fill-opacity="0.3"/>
<path opacity="0.05" d="M1306.07 406.227H1260.98V451.216H1306.07V406.227Z" fill="black" fill-opacity="0.3"/>
<path opacity="0.15" d="M1351.16 406.227H1306.07V451.216H1351.16V406.227Z" fill="black" fill-opacity="0.3"/>
<path opacity="0.05" d="M1396.25 271.262H1351.16V316.251H1396.25V271.262Z" fill="black" fill-opacity="0.3"/>
<path opacity="0.1" d="M1441.34 271.262H1396.25V316.251H1441.34V271.262Z" fill="black" fill-opacity="0.3"/>
<path opacity="0.15" d="M1396.25 316.25H1351.16V361.239H1396.25V316.25Z" fill="black" fill-opacity="0.3"/>
<path opacity="0.1" d="M1441.34 316.25H1396.25V361.239H1441.34V316.25Z" fill="black" fill-opacity="0.3"/>
<path opacity="0.15" d="M1396.25 361.238H1351.16V406.227H1396.25V361.238Z" fill="black" fill-opacity="0.3"/>
<path opacity="0.1" d="M1441.34 361.238H1396.25V406.227H1441.34V361.238Z" fill="black" fill-opacity="0.3"/>
<path opacity="0.1" d="M1441.34 496.707H1396.25V541.696H1441.34V496.707Z" fill="black" fill-opacity="0.3"/>
<path opacity="0.2" d="M1396.25 406.227H1351.16V451.216H1396.25V406.227Z" fill="black" fill-opacity="0.3"/>
<path opacity="0.2" d="M1441.34 406.227H1396.25V451.216H1441.34V406.227Z" fill="black" fill-opacity="0.3"/>
<path opacity="0.2" d="M1125.71 451.219H1080.63V496.208H1125.71V451.219Z" fill="black" fill-opacity="0.3"/>
<path opacity="0.2" d="M1170.8 451.219H1125.71V496.208H1170.8V451.219Z" fill="black" fill-opacity="0.3"/>
<path opacity="0.1" d="M1125.71 496.207H1080.63V541.196H1125.71V496.207Z" fill="black" fill-opacity="0.3"/>
<path opacity="0.2" d="M1170.8 496.207H1125.71V541.196H1170.8V496.207Z" fill="black" fill-opacity="0.3"/>
<path opacity="0.15" d="M1125.71 541.195H1080.63V586.184H1125.71V541.195Z" fill="black" fill-opacity="0.3"/>
<path opacity="0.15" d="M1170.8 541.195H1125.71V586.184H1170.8V541.195Z" fill="black" fill-opacity="0.3"/>
<path opacity="0.2" d="M1125.71 586.184H1080.63V631.173H1125.71V586.184Z" fill="black" fill-opacity="0.3"/>
<path opacity="0.1" d="M1170.8 586.184H1125.71V631.173H1170.8V586.184Z" fill="black" fill-opacity="0.3"/>
<path opacity="0.2" d="M1215.89 451.219H1170.8V496.208H1215.89V451.219Z" fill="black" fill-opacity="0.3"/>
<path opacity="0.15" d="M1260.98 451.219H1215.89V496.208H1260.98V451.219Z" fill="black" fill-opacity="0.3"/>
<path opacity="0.15" d="M1215.89 496.207H1170.8V541.196H1215.89V496.207Z" fill="black" fill-opacity="0.3"/>
<path opacity="0.05" d="M1260.98 496.207H1215.89V541.196H1260.98V496.207Z" fill="black" fill-opacity="0.3"/>
<path opacity="0.2" d="M1215.89 541.195H1170.8V586.184H1215.89V541.195Z" fill="black" fill-opacity="0.3"/>
<path opacity="0.2" d="M1260.98 541.195H1215.89V586.184H1260.98V541.195Z" fill="black" fill-opacity="0.3"/>
<path opacity="0.2" d="M1215.89 586.184H1170.8V631.173H1215.89V586.184Z" fill="black" fill-opacity="0.3"/>
<path opacity="0.25" d="M1260.98 586.184H1215.89V631.173H1260.98V586.184Z" fill="black" fill-opacity="0.3"/>
<path opacity="0.2" d="M1306.07 451.219H1260.98V496.208H1306.07V451.219Z" fill="black" fill-opacity="0.3"/>
<path opacity="0.15" d="M1351.16 451.219H1306.07V496.208H1351.16V451.219Z" fill="black" fill-opacity="0.3"/>
<path opacity="0.15" d="M1306.07 496.207H1260.98V541.196H1306.07V496.207Z" fill="black" fill-opacity="0.3"/>
<path opacity="0.25" d="M1351.16 496.207H1306.07V541.196H1351.16V496.207Z" fill="black" fill-opacity="0.3"/>
<path opacity="0.15" d="M1306.07 541.195H1260.98V586.184H1306.07V541.195Z" fill="black" fill-opacity="0.3"/>
<path opacity="0.25" d="M1351.16 541.195H1306.07V586.184H1351.16V541.195Z" fill="black" fill-opacity="0.3"/>
<path opacity="0.25" d="M1306.07 586.184H1260.98V631.173H1306.07V586.184Z" fill="black" fill-opacity="0.3"/>
<path opacity="0.25" d="M1351.16 586.184H1306.07V631.173H1351.16V586.184Z" fill="black" fill-opacity="0.3"/>
<path opacity="0.2" d="M1396.25 451.219H1351.16V496.208H1396.25V451.219Z" fill="black" fill-opacity="0.3"/>
<path opacity="0.2" d="M1441.34 451.219H1396.25V496.208H1441.34V451.219Z" fill="black" fill-opacity="0.3"/>
<path opacity="0.25" d="M1396.25 496.207H1351.16V541.196H1396.25V496.207Z" fill="black" fill-opacity="0.3"/>
<path opacity="0.25" d="M1396.25 541.195H1351.16V586.184H1396.25V541.195Z" fill="black" fill-opacity="0.3"/>
<path opacity="0.25" d="M1441.34 541.195H1396.25V586.184H1441.34V541.195Z" fill="black" fill-opacity="0.3"/>
<path opacity="0.25" d="M1396.25 586.184H1351.16V631.173H1396.25V586.184Z" fill="black" fill-opacity="0.3"/>
<path opacity="0.25" d="M1441.34 586.184H1396.25V631.173H1441.34V586.184Z" fill="black" fill-opacity="0.3"/>
<path d="M1 1.30859V631.309" stroke="black" stroke-opacity="0.05" stroke-miterlimit="10"/>
<path d="M46 1.30859V631.309" stroke="black" stroke-opacity="0.05" stroke-miterlimit="10"/>
<path d="M91 1.30859V631.309" stroke="black" stroke-opacity="0.05" stroke-miterlimit="10"/>
<path d="M135 1.30859V631.309" stroke="black" stroke-opacity="0.05" stroke-miterlimit="10"/>
<path d="M181 1.30859V631.309" stroke="black" stroke-opacity="0.05" stroke-miterlimit="10"/>
<path d="M226 1.30859V631.309" stroke="black" stroke-opacity="0.05" stroke-miterlimit="10"/>
<path d="M271 1.30859V631.309" stroke="black" stroke-opacity="0.05" stroke-miterlimit="10"/>
<path d="M316 1.30859V631.309" stroke="black" stroke-opacity="0.05" stroke-miterlimit="10"/>
<path d="M360 1.30859V631.309" stroke="black" stroke-opacity="0.05" stroke-miterlimit="10"/>
<path d="M406 1.30859V631.309" stroke="black" stroke-opacity="0.05" stroke-miterlimit="10"/>
<path d="M451 1.30859V631.309" stroke="black" stroke-opacity="0.05" stroke-miterlimit="10"/>
<path d="M496 1.30859V631.309" stroke="black" stroke-opacity="0.05" stroke-miterlimit="10"/>
<path d="M541 1.30859V631.309" stroke="black" stroke-opacity="0.05" stroke-miterlimit="10"/>
<path d="M585 1.30859V631.309" stroke="black" stroke-opacity="0.05" stroke-miterlimit="10"/>
<path d="M631 1.30859V631.309" stroke="black" stroke-opacity="0.05" stroke-miterlimit="10"/>
<path d="M676 1.30859V631.309" stroke="black" stroke-opacity="0.05" stroke-miterlimit="10"/>
<path d="M721 1.30859V631.309" stroke="black" stroke-opacity="0.05" stroke-miterlimit="10"/>
<path d="M766 1.30859V631.309" stroke="black" stroke-opacity="0.05" stroke-miterlimit="10"/>
<path d="M811 1.30859V631.309" stroke="black" stroke-opacity="0.05" stroke-miterlimit="10"/>
<path d="M856 1.30859V631.309" stroke="black" stroke-opacity="0.05" stroke-miterlimit="10"/>
<path d="M900 1.30859V631.309" stroke="black" stroke-opacity="0.05" stroke-miterlimit="10"/>
<path d="M946 1.30859V631.309" stroke="black" stroke-opacity="0.05" stroke-miterlimit="10"/>
<path d="M991 1.30859V631.309" stroke="black" stroke-opacity="0.05" stroke-miterlimit="10"/>
<path d="M1036 1.30859V631.309" stroke="black" stroke-opacity="0.05" stroke-miterlimit="10"/>
<path d="M1081 1.30859V631.309" stroke="black" stroke-opacity="0.05" stroke-miterlimit="10"/>
<path d="M1125 1.30859V631.309" stroke="black" stroke-opacity="0.05" stroke-miterlimit="10"/>
<path d="M1171 1.30859V631.309" stroke="black" stroke-opacity="0.05" stroke-miterlimit="10"/>
<path d="M1216 1.30859V631.309" stroke="black" stroke-opacity="0.05" stroke-miterlimit="10"/>
<path d="M1261 1.30859V631.309" stroke="black" stroke-opacity="0.05" stroke-miterlimit="10"/>
<path d="M1306 1.30859V631.309" stroke="black" stroke-opacity="0.05" stroke-miterlimit="10"/>
<path d="M1350 1.30859V631.309" stroke="black" stroke-opacity="0.05" stroke-miterlimit="10"/>
<path d="M1396 1.30859V631.309" stroke="black" stroke-opacity="0.05" stroke-miterlimit="10"/>
<path d="M1441 1.30859V631.309" stroke="black" stroke-opacity="0.05" stroke-miterlimit="10"/>
<path d="M1440.65 1H1.2998" stroke="black" stroke-opacity="0.05" stroke-miterlimit="10"/>
<path d="M1440.65 45.6719H1.2998" stroke="black" stroke-opacity="0.05" stroke-miterlimit="10"/>
<path d="M1440.65 91.043H1.2998" stroke="black" stroke-opacity="0.05" stroke-miterlimit="10"/>
<path d="M1440.65 136.414H1.2998" stroke="black" stroke-opacity="0.05" stroke-miterlimit="10"/>
<path d="M1440.65 181.086H1.2998" stroke="black" stroke-opacity="0.05" stroke-miterlimit="10"/>
<path d="M1440.65 226.109H1.2998" stroke="black" stroke-opacity="0.05" stroke-miterlimit="10"/>
<path d="M1440.65 270.781H1.2998" stroke="black" stroke-opacity="0.05" stroke-miterlimit="10"/>
<path d="M1440.65 316.152H1.2998" stroke="black" stroke-opacity="0.05" stroke-miterlimit="10"/>
<path d="M1440.65 361.523H1.2998" stroke="black" stroke-opacity="0.05" stroke-miterlimit="10"/>
<path d="M1440.65 406.195H1.2998" stroke="black" stroke-opacity="0.05" stroke-miterlimit="10"/>
<path d="M1440.65 451.219H1.2998" stroke="black" stroke-opacity="0.05" stroke-miterlimit="10"/>
<path d="M1440.65 495.891H1.2998" stroke="black" stroke-opacity="0.05" stroke-miterlimit="10"/>
<path d="M1440.65 541.262H1.2998" stroke="black" stroke-opacity="0.05" stroke-miterlimit="10"/>
<path d="M1440.65 586.633H1.2998" stroke="black" stroke-opacity="0.05" stroke-miterlimit="10"/>
<path d="M1440.65 631.309H1.2998" stroke="black" stroke-opacity="0.05" stroke-miterlimit="10"/>
</svg>
