<svg width="198" height="49" viewBox="0 0 198 49" fill="none" xmlns="http://www.w3.org/2000/svg">
<g clip-path="url(#clip0_523_43)">
<path d="M43.4589 29.1584C42.6727 29.8061 42.109 30.3001 41.5149 30.7562C38.6709 32.9437 35.1848 32.7472 32.7681 30.101C30.8139 27.9638 29.0317 25.6705 27.1736 23.4451C27.0649 23.3166 26.9967 23.1251 26.8627 23.0545C26.3748 22.805 25.7858 22.3262 25.3863 22.4446C25.0172 22.553 24.6027 23.3267 24.6229 23.7904C24.7695 27.1372 25.0248 30.479 25.2422 33.8233C25.3434 35.3656 25.6619 36.9357 25.4824 38.4478C25.0046 42.5255 21.5969 45.2372 17.1754 45.0986C13.6843 44.9902 10.322 44.1359 7.24043 42.4826C1.45639 39.3828 -1.01345 33.7703 0.381999 27.2884C1.40836 22.5202 3.8049 18.5005 6.94718 14.8311C10.7923 10.3427 14.8522 6.10625 19.9233 2.96862C22.3806 1.44895 25.0046 0.309822 27.9194 0.0552829C32.9728 -0.38323 36.8634 1.78665 39.3787 5.97016C41.6666 9.77061 43.4488 13.8735 45.4484 17.8453C45.633 18.2107 45.7872 18.5938 46.0451 19.1709C47.2737 18.0847 48.3506 17.0514 49.516 16.1265C50.9241 15.0076 52.3018 13.7878 53.8742 12.9486C57.2845 11.129 61.0512 12.0892 63.4578 15.1436C65.3109 17.495 66.585 20.1563 67.2802 23.0268C68.3065 27.2632 69.4542 31.5148 69.932 35.8268C70.6626 42.4221 65.3943 48.6798 58.3741 48.9847C51.7204 49.2745 46.5709 44.9096 45.4586 38.3268C45.0263 35.7638 44.4271 33.2285 43.8912 30.6831C43.7977 30.2421 43.646 29.8162 43.4564 29.1584H43.4589ZM41.525 23.2712C40.9815 21.9305 40.5568 20.6099 39.9349 19.3902C38.0136 15.62 36.1682 11.7943 33.9916 8.17281C32.6088 5.87187 30.1592 5.19394 27.5528 5.81895C26.1397 6.15666 24.7215 6.6985 23.4676 7.42683C18.174 10.4964 14.1343 14.942 10.322 19.617C7.93816 22.5404 6.23935 25.7839 5.74133 29.5541C5.32674 32.6917 6.31013 35.3278 9.07575 37.0239C11.4344 38.473 14.0635 39.2744 16.8493 39.3677C19.4961 39.4559 20.3177 38.5058 19.8526 35.9327C19.1169 31.8701 18.8287 27.7799 18.9298 23.6543C19.0107 20.3831 20.6413 17.9839 23.546 16.9783C26.2509 16.0408 29.0898 16.9279 31.1046 19.3599C32.8464 21.4618 34.568 23.5812 36.3174 25.678C36.6005 26.0157 36.9797 26.2703 37.508 26.734C38.8554 25.5722 40.1371 24.4683 41.5225 23.2738L41.525 23.2712ZM48.1357 24.8842C48.2722 25.3907 48.391 25.7889 48.4846 26.1921C49.248 29.5037 49.9786 32.8228 50.7774 36.1242C51.1263 37.5708 51.3917 39.1005 52.0819 40.3858C53.308 42.6666 56.3795 43.8133 58.9681 43.2689C61.6756 42.6968 63.9685 40.5774 64.1505 37.9362C64.2921 35.8797 64.0014 33.7653 63.6752 31.7139C62.9977 27.4724 62.0068 23.299 59.7746 19.5515C58.4827 17.3791 57.0671 17.1245 55.1155 18.7173C53.4571 20.0706 51.8898 21.5399 50.2845 22.9587C49.5691 23.5938 48.8587 24.234 48.1357 24.8816V24.8842Z" fill="white"/>
</g>
<path d="M91.4375 22.075H94.85L99.9 32.5375H99.675L104.725 22.075H108.025V38H105.625V24.6875H106.013L100.563 36.1125H99L93.575 24.75H93.8125V38H91.4375V22.075ZM116.922 38.325C115.831 38.325 114.852 38.0875 113.985 37.6125C113.127 37.1375 112.447 36.4292 111.947 35.4875C111.447 34.5458 111.197 33.3833 111.197 32C111.197 30.5917 111.447 29.4208 111.947 28.4875C112.447 27.5458 113.127 26.8375 113.985 26.3625C114.852 25.8875 115.831 25.65 116.922 25.65C117.997 25.65 118.964 25.8875 119.822 26.3625C120.681 26.8375 121.356 27.5458 121.847 28.4875C122.347 29.4208 122.597 30.5917 122.597 32C122.597 33.3833 122.347 34.5458 121.847 35.4875C121.356 36.4292 120.681 37.1375 119.822 37.6125C118.964 38.0875 117.997 38.325 116.922 38.325ZM116.847 36.25C117.539 36.25 118.135 36.0833 118.635 35.75C119.143 35.4167 119.531 34.9333 119.797 34.3C120.072 33.6583 120.21 32.8917 120.21 32C120.21 30.6333 119.931 29.575 119.372 28.825C118.822 28.075 118.027 27.7 116.985 27.7C116.285 27.7 115.681 27.8708 115.172 28.2125C114.672 28.5458 114.285 29.0333 114.01 29.675C113.743 30.3083 113.61 31.0833 113.61 32C113.61 33.3417 113.889 34.3875 114.447 35.1375C115.006 35.8792 115.806 36.25 116.847 36.25ZM125.765 38V20.9125H128.14V38H125.765ZM132.516 38V20.9125H134.891V38H132.516ZM140.642 23.4125C140.167 23.4125 139.792 23.2833 139.517 23.025C139.25 22.7583 139.117 22.4 139.117 21.95C139.117 21.5167 139.25 21.175 139.517 20.925C139.792 20.6667 140.167 20.5375 140.642 20.5375C141.108 20.5375 141.475 20.6667 141.742 20.925C142.017 21.175 142.154 21.5167 142.154 21.95C142.154 22.4 142.017 22.7583 141.742 23.025C141.475 23.2833 141.108 23.4125 140.642 23.4125ZM139.454 38V25.9375H141.829V38H139.454ZM150.393 38.325C149.709 38.325 149.093 38.1958 148.543 37.9375C147.993 37.6792 147.555 37.2917 147.23 36.775C146.914 36.25 146.755 35.5917 146.755 34.8V22.7H149.118V34.725C149.118 35.8583 149.647 36.425 150.705 36.425C151.03 36.425 151.347 36.3917 151.655 36.325C151.964 36.25 152.314 36.1417 152.705 36L153.043 37.6875C152.601 37.8708 152.164 38.0208 151.73 38.1375C151.305 38.2625 150.859 38.325 150.393 38.325ZM144.918 27.5875V25.975H152.68V27.5875H144.918ZM157 23.4125C156.525 23.4125 156.15 23.2833 155.875 23.025C155.608 22.7583 155.475 22.4 155.475 21.95C155.475 21.5167 155.608 21.175 155.875 20.925C156.15 20.6667 156.525 20.5375 157 20.5375C157.467 20.5375 157.833 20.6667 158.1 20.925C158.375 21.175 158.513 21.5167 158.513 21.95C158.513 22.4 158.375 22.7583 158.1 23.025C157.833 23.2833 157.467 23.4125 157 23.4125ZM155.813 38V25.9375H158.188V38H155.813ZM170.426 38L170.126 35.2375V30.225C170.126 29.2417 169.922 28.5292 169.514 28.0875C169.105 27.6375 168.46 27.4125 167.576 27.4125C167.076 27.4125 166.63 27.4875 166.239 27.6375C165.855 27.7792 165.551 27.9958 165.326 28.2875C165.11 28.5792 165.001 28.9458 165.001 29.3875H162.376C162.376 28.5042 162.593 27.7875 163.026 27.2375C163.46 26.6875 164.064 26.2875 164.839 26.0375C165.622 25.7792 166.535 25.65 167.576 25.65C168.551 25.65 169.41 25.8125 170.151 26.1375C170.893 26.4542 171.468 26.9542 171.876 27.6375C172.293 28.3208 172.501 29.2042 172.501 30.2875V38H170.426ZM166.401 38.325C165.393 38.325 164.555 38.15 163.889 37.8C163.222 37.4417 162.722 36.975 162.389 36.4C162.064 35.825 161.901 35.2125 161.901 34.5625C161.901 33.7708 162.101 33.1208 162.501 32.6125C162.91 32.0958 163.472 31.7125 164.189 31.4625C164.905 31.2125 165.73 31.0875 166.664 31.0875C167.305 31.0875 167.93 31.1458 168.539 31.2625C169.147 31.3792 169.747 31.5333 170.339 31.725V33.1625C169.855 32.9875 169.318 32.85 168.726 32.75C168.143 32.6417 167.597 32.5875 167.089 32.5875C166.33 32.5875 165.697 32.7375 165.189 33.0375C164.68 33.3375 164.426 33.8458 164.426 34.5625C164.426 35.0875 164.626 35.5417 165.026 35.925C165.426 36.3 166.06 36.4875 166.926 36.4875C167.56 36.4875 168.118 36.3458 168.601 36.0625C169.085 35.7708 169.46 35.4083 169.726 34.975C169.993 34.5417 170.126 34.1083 170.126 33.675H170.701C170.701 34.5083 170.53 35.2792 170.189 35.9875C169.855 36.6875 169.368 37.2542 168.726 37.6875C168.085 38.1125 167.31 38.325 166.401 38.325ZM193.187 38V30.95C193.187 29.9083 192.937 29.1208 192.437 28.5875C191.945 28.0458 191.283 27.775 190.449 27.775C189.449 27.775 188.674 28.1667 188.124 28.95C187.583 29.7333 187.312 30.8583 187.312 32.325H186.274C186.274 31.1667 186.387 30.1667 186.612 29.325C186.837 28.4833 187.158 27.7917 187.574 27.25C187.999 26.7083 188.504 26.3083 189.087 26.05C189.679 25.7833 190.337 25.65 191.062 25.65C192.029 25.65 192.845 25.8667 193.512 26.3C194.187 26.7333 194.699 27.35 195.049 28.15C195.399 28.9417 195.574 29.875 195.574 30.95V38H193.187ZM176.524 38V25.975H178.587L178.849 28.2375C179.233 27.3958 179.758 26.7542 180.424 26.3125C181.099 25.8708 181.891 25.65 182.799 25.65C183.766 25.65 184.583 25.8667 185.249 26.3C185.924 26.7333 186.437 27.35 186.787 28.15C187.137 28.9417 187.312 29.875 187.312 30.95V38H184.949V30.95C184.949 29.9083 184.699 29.1208 184.199 28.5875C183.708 28.0458 183.041 27.775 182.199 27.775C181.533 27.775 180.949 27.9583 180.449 28.325C179.958 28.6833 179.574 29.2125 179.299 29.9125C179.033 30.6042 178.899 31.45 178.899 32.45V38H176.524Z" fill="white"/>
<defs>
<clipPath id="clip0_523_43">
<rect width="70" height="49" fill="white"/>
</clipPath>
</defs>
</svg>
