<svg width="101" height="36" viewBox="0 0 101 36" fill="none" xmlns="http://www.w3.org/2000/svg">
<g id="Layer_1" clip-path="url(#clip0_733_1448)">
<g id="Group">
<path id="Vector" d="M68.6322 12.4143H62.282C62.0983 11.3683 61.7637 10.4406 61.2783 9.63143C60.7928 8.82222 60.1827 8.13142 59.4611 7.55906C58.7395 6.99327 57.9129 6.56564 56.988 6.27616C56.063 5.98669 55.0724 5.84195 54.0096 5.84195C52.1203 5.84195 50.4409 6.31564 48.9846 7.263C47.5217 8.21037 46.3802 9.59853 45.5536 11.4209C44.727 13.2433 44.3138 15.467 44.3138 18.092C44.3138 20.717 44.727 23.0064 45.5602 24.8288C46.3933 26.6512 47.5348 28.0262 48.9911 28.9538C50.4475 29.8814 52.1138 30.342 53.99 30.342C55.033 30.342 56.0105 30.2038 56.9223 29.9275C57.8342 29.6512 58.6542 29.2367 59.3824 28.6906C60.1106 28.1446 60.7272 27.4735 61.2324 26.6841C61.7375 25.888 62.0852 24.9801 62.2754 23.9604L68.6257 23.9933C68.3895 25.6512 67.8778 27.2038 67.0906 28.6577C66.3034 30.1117 65.2734 31.3946 64.0073 32.4999C62.7412 33.6051 61.2586 34.467 59.5595 35.0854C57.8605 35.7038 55.9777 36.013 53.9047 36.013C50.8477 36.013 48.1186 35.3025 45.7176 33.8814C43.3166 32.4604 41.4273 30.4143 40.0431 27.7301C38.6589 25.0525 37.9701 21.8354 37.9701 18.092C37.9701 14.3485 38.6655 11.1183 40.0562 8.44064C41.447 5.763 43.3429 3.71695 45.7439 2.30248C48.1449 0.881425 50.8608 0.170898 53.8981 0.170898C55.8334 0.170898 57.6374 0.440635 59.2971 0.986688C60.9634 1.53274 62.446 2.32879 63.7449 3.38143C65.0438 4.43406 66.1197 5.71695 66.9659 7.23011C67.8122 8.74327 68.3632 10.4735 68.6191 12.4143H68.6322Z" fill="black"/>
<path id="Vector_2" d="M74.4182 35.5261V0.644531H87.4598C90.1298 0.644531 92.3799 1.11164 94.197 2.03927C96.0142 2.97348 97.3918 4.27611 98.3234 5.94716C99.2549 7.61822 99.7273 9.57216 99.7273 11.7958C99.7273 14.0195 99.2549 15.9735 98.3103 17.6116C97.3656 19.2498 95.9748 20.5195 94.138 21.4077C92.3012 22.3024 90.051 22.7432 87.3811 22.7432H78.0919V17.4998H86.5348C88.0961 17.4998 89.3753 17.2827 90.3725 16.8419C91.3696 16.4011 92.1044 15.763 92.5898 14.9143C93.0687 14.0656 93.3114 13.0261 93.3114 11.7893C93.3114 10.5524 93.0687 9.49322 92.5833 8.61164C92.0978 7.73006 91.3565 7.059 90.3594 6.60506C89.3622 6.14453 88.0764 5.91427 86.502 5.91427H80.7291V35.5195H74.4248L74.4182 35.5261ZM92.3864 19.7169L101 35.5261H93.9674L85.5114 19.7169H92.393H92.3864Z" fill="black"/>
</g>
<path id="Vector_3" d="M17.7124 29.6055H11.8082V35.5265H17.7124V29.6055Z" fill="black"/>
<path id="Vector_4" d="M29.5207 17.7632H17.7124V29.6053H29.5207V17.7632Z" fill="black"/>
<path id="Vector_5" d="M17.7124 0H0V17.7632H17.7124V0Z" fill="black"/>
</g>
<defs>
<clipPath id="clip0_733_1448">
<rect width="101" height="36" fill="white"/>
</clipPath>
</defs>
</svg>
