<svg xmlns="http://www.w3.org/2000/svg" width="225" height="80" viewBox="0 0 225 80" fill="none">
  <g clip-path="url(#clip0_459_6840)">
    <path d="M152.894 27.5877H138.747C138.338 25.2632 137.593 23.2018 136.511 21.4035C135.43 19.6053 134.071 18.0702 132.463 16.7983C130.855 15.5409 129.014 14.5907 126.953 13.9474C124.893 13.3041 122.686 12.9825 120.319 12.9825C116.11 12.9825 112.368 14.0351 109.124 16.1404C105.865 18.2456 103.322 21.3304 101.481 25.3801C99.6395 29.4298 98.7188 34.3714 98.7188 40.2047C98.7188 46.038 99.6395 51.1257 101.496 55.1755C103.352 59.2252 105.894 62.2807 109.139 64.3421C112.383 66.4035 116.095 67.4269 120.275 67.4269C122.598 67.4269 124.776 67.1199 126.807 66.5059C128.839 65.8918 130.665 64.9708 132.288 63.7573C133.91 62.5439 135.284 61.0526 136.409 59.2983C137.534 57.5293 138.309 55.5117 138.732 53.2456L152.879 53.3187C152.353 57.0029 151.213 60.4532 149.459 63.6842C147.706 66.9152 145.411 69.7661 142.591 72.2222C139.77 74.6784 136.467 76.5936 132.682 77.9678C128.897 79.3421 124.703 80.0293 120.085 80.0293C113.275 80.0293 107.195 78.4503 101.846 75.2924C96.4975 72.1345 92.2886 67.5877 89.205 61.6228C86.1214 55.6725 84.5869 48.5234 84.5869 40.2047C84.5869 31.886 86.136 24.7076 89.2342 18.7573C92.3324 12.807 96.5559 8.26024 101.905 5.11697C107.254 1.95907 113.304 0.380127 120.07 0.380127C124.381 0.380127 128.4 0.979542 132.098 2.19299C135.81 3.40644 139.112 5.17545 142.006 7.51463C144.9 9.85381 147.296 12.7047 149.182 16.0673C151.067 19.4298 152.294 23.2749 152.864 27.5877H152.894Z" fill="white"/>
    <path d="M165.783 78.9475V1.43286H194.836C200.784 1.43286 205.797 2.47087 209.845 4.53228C213.893 6.6083 216.962 9.50304 219.037 13.2165C221.113 16.9299 222.165 21.272 222.165 26.2136C222.165 31.1551 221.113 35.4972 219.008 39.1375C216.904 42.7779 213.806 45.5995 209.714 47.5732C205.622 49.5615 200.609 50.5411 194.661 50.5411H173.967V38.889H192.776C196.254 38.889 199.104 38.4066 201.325 37.427C203.546 36.4475 205.183 35.0294 206.265 33.1434C207.331 31.2574 207.872 28.9475 207.872 26.1989C207.872 23.4504 207.331 21.0966 206.25 19.1375C205.169 17.1785 203.517 15.6872 201.296 14.6785C199.074 13.6551 196.21 13.1434 192.703 13.1434H179.842V78.9329H165.798L165.783 78.9475ZM205.812 43.8159L225 78.9475H209.334L190.496 43.8159H205.826H205.812Z" fill="white"/>
    <path d="M39.4583 65.7896H26.3055V78.9474H39.4583V65.7896Z" fill="white"/>
    <path d="M65.7638 39.4736H39.4583V65.7894H65.7638V39.4736Z" fill="white"/>
    <path d="M39.4583 0H0V39.4737H39.4583V0Z" fill="white"/>
  </g>
  <defs>
    <clipPath id="clip0_459_6840">
      <rect width="225" height="80" fill="white"/>
    </clipPath>
  </defs>
</svg>