<svg width="102" height="44" viewBox="0 0 102 44" fill="none" xmlns="http://www.w3.org/2000/svg">
<path d="M21.2526 39.04H22.3326V0.999997H30.2526V43H14.7726L9.85258 4.96H8.77258V43H0.852578V0.999997H16.3326L21.2526 39.04ZM57.6909 13.84C57.6909 12.16 57.0309 10.7 55.7109 9.46C54.4309 8.22 52.6109 7.6 50.2509 7.6C48.2509 7.6 46.6709 8.02 45.5109 8.86C44.3509 9.66 43.7709 10.76 43.7709 12.16C43.7709 12.88 43.9109 13.54 44.1909 14.14C44.4709 14.7 44.9509 15.22 45.6309 15.7C46.3509 16.14 47.2709 16.54 48.3909 16.9C49.5509 17.26 51.0109 17.6 52.7709 17.92C57.1709 18.72 60.5309 20.06 62.8509 21.94C65.1709 23.82 66.3309 26.6 66.3309 30.28V31C66.3309 32.96 65.9709 34.74 65.2509 36.34C64.5709 37.9 63.5709 39.24 62.2509 40.36C60.9309 41.48 59.3309 42.34 57.4509 42.94C55.5709 43.54 53.4509 43.84 51.0909 43.84C48.3309 43.84 45.8909 43.46 43.7709 42.7C41.6909 41.9 39.9509 40.82 38.5509 39.46C37.1509 38.06 36.0909 36.44 35.3709 34.6C34.6509 32.72 34.2909 30.68 34.2909 28.48V26.68H42.2109V28.12C42.2109 30.64 42.9309 32.66 44.3709 34.18C45.8509 35.66 48.1309 36.4 51.2109 36.4C53.6109 36.4 55.3909 35.88 56.5509 34.84C57.7109 33.8 58.2909 32.56 58.2909 31.12C58.2909 30.44 58.1709 29.8 57.9309 29.2C57.6909 28.56 57.2709 28 56.6709 27.52C56.0709 27 55.2509 26.54 54.2109 26.14C53.1709 25.74 51.8509 25.4 50.2509 25.12C48.1309 24.76 46.1909 24.3 44.4309 23.74C42.6709 23.14 41.1309 22.36 39.8109 21.4C38.5309 20.44 37.5309 19.24 36.8109 17.8C36.0909 16.36 35.7309 14.6 35.7309 12.52V12.16C35.7309 10.44 36.0709 8.86 36.7509 7.42C37.4709 5.94 38.4509 4.66 39.6909 3.58C40.9709 2.5 42.4909 1.66 44.2509 1.06C46.0509 0.459997 48.0509 0.159997 50.2509 0.159997C52.7309 0.159997 54.9309 0.519997 56.8509 1.24C58.7709 1.92 60.3709 2.86 61.6509 4.06C62.9709 5.26 63.9509 6.64 64.5909 8.2C65.2709 9.76 65.6109 11.4 65.6109 13.12V15.28H57.6909V13.84ZM92.6291 13.84C92.6291 12.16 91.9691 10.7 90.6491 9.46C89.3691 8.22 87.5491 7.6 85.1891 7.6C83.1891 7.6 81.6091 8.02 80.4491 8.86C79.2891 9.66 78.7091 10.76 78.7091 12.16C78.7091 12.88 78.8491 13.54 79.1291 14.14C79.4091 14.7 79.8891 15.22 80.5691 15.7C81.2891 16.14 82.2091 16.54 83.3291 16.9C84.4891 17.26 85.9491 17.6 87.7091 17.92C92.1091 18.72 95.4691 20.06 97.7891 21.94C100.109 23.82 101.269 26.6 101.269 30.28V31C101.269 32.96 100.909 34.74 100.189 36.34C99.5091 37.9 98.5091 39.24 97.1891 40.36C95.8691 41.48 94.2691 42.34 92.3891 42.94C90.5091 43.54 88.3891 43.84 86.0291 43.84C83.2691 43.84 80.8291 43.46 78.7091 42.7C76.6291 41.9 74.8891 40.82 73.4891 39.46C72.0891 38.06 71.0291 36.44 70.3091 34.6C69.5891 32.72 69.2291 30.68 69.2291 28.48V26.68H77.1491V28.12C77.1491 30.64 77.8691 32.66 79.3091 34.18C80.7891 35.66 83.0691 36.4 86.1491 36.4C88.5491 36.4 90.3291 35.88 91.4891 34.84C92.6491 33.8 93.2291 32.56 93.2291 31.12C93.2291 30.44 93.1091 29.8 92.8691 29.2C92.6291 28.56 92.2091 28 91.6091 27.52C91.0091 27 90.1891 26.54 89.1491 26.14C88.1091 25.74 86.7891 25.4 85.1891 25.12C83.0691 24.76 81.1291 24.3 79.3691 23.74C77.6091 23.14 76.0691 22.36 74.7491 21.4C73.4691 20.44 72.4691 19.24 71.7491 17.8C71.0291 16.36 70.6691 14.6 70.6691 12.52V12.16C70.6691 10.44 71.0091 8.86 71.6891 7.42C72.4091 5.94 73.3891 4.66 74.6291 3.58C75.9091 2.5 77.4291 1.66 79.1891 1.06C80.9891 0.459997 82.9891 0.159997 85.1891 0.159997C87.6691 0.159997 89.8691 0.519997 91.7891 1.24C93.7091 1.92 95.3091 2.86 96.5891 4.06C97.9091 5.26 98.8891 6.64 99.5291 8.2C100.209 9.76 100.549 11.4 100.549 13.12V15.28H92.6291V13.84Z" fill="#F5F5F5"/>
</svg>
