
<svg xmlns="http://www.w3.org/2000/svg" width="40" height="55" viewBox="0 0 40 55" fill="none">
  <path d="M2.26764 27.0365L1 26.6844V28V34V34.7601L1.73236 34.9635L19.7324 39.9635L20 40.0379L20.2676 39.9635L38.2676 34.9635L39 34.7601V34V28V26.6844L37.7324 27.0365L20 31.9621L2.26764 27.0365Z" stroke="#D8D8D8" stroke-width="2"/>
  <path d="M2.26764 40.0365L1 39.6844V41V47V47.7601L1.73236 47.9635L19.7324 52.9635L20 53.0379L20.2676 52.9635L38.2676 47.9635L39 47.7601V47V41V39.6844L37.7324 40.0365L20 44.9621L2.26764 40.0365Z" stroke="#D8D8D8" stroke-width="2"/>
  <path d="M20 3.23607L22.1921 9.98278L22.4167 10.6738H23.1432H30.2371L24.498 14.8435L23.9102 15.2705L24.1347 15.9615L26.3269 22.7082L20.5878 18.5385L20 18.1115L19.4122 18.5385L13.6731 22.7082L15.8653 15.9615L16.0898 15.2705L15.502 14.8435L9.76289 10.6738H16.8568H17.5833L17.8079 9.98278L20 3.23607Z" stroke="#D8D8D8" stroke-width="2"/>
</svg>
