<svg width="200" height="32" viewBox="0 0 200 32" fill="none" xmlns="http://www.w3.org/2000/svg">
<g clip-path="url(#clip0_1092_68)">
<path d="M18.9122 31.4894C18.7238 31.4894 18.5525 31.4212 18.4325 31.2848L0.205567 13.1447C-0.0685225 12.8719 -0.0685225 12.4457 0.205567 12.19L8.46253 3.9724C8.71949 3.71667 9.16488 3.71667 9.42184 3.9724L18.8951 13.4005L31.9315 0.204587C32.0514 0.0681957 32.2398 0 32.4111 0C32.5482 0.0340978 32.7709 0.0681957 32.8908 0.204587L46.03 13.4005L55.5032 3.9724C55.7602 3.71667 56.2056 3.71667 56.4625 3.9724L64.7195 12.19C64.9936 12.4628 64.9936 12.889 64.7195 13.1447L46.5268 31.2848C46.4069 31.4041 46.2184 31.4894 46.0471 31.4894C45.8587 31.4894 45.6874 31.4212 45.5675 31.2848L32.4283 18.0889L19.409 31.2848C19.2719 31.4041 19.1006 31.4723 18.9122 31.4894ZM32.4111 16.4352C32.5996 16.4352 32.7709 16.5034 32.8908 16.6397L46.03 29.8527L63.2805 12.6844L55.9829 5.42156L46.5096 14.8496C46.3897 14.969 46.2013 15.0542 46.03 15.0542C45.8415 15.0542 45.6702 14.986 45.5503 14.8496L32.4283 1.6367L19.3919 14.8326C19.2548 14.969 19.1178 14.986 18.9122 15.0372C18.7238 15.0372 18.5525 14.969 18.4325 14.8326L8.95932 5.40451L1.66167 12.6674L18.9122 29.8356L31.9315 16.6397C32.0514 16.5034 32.2398 16.4352 32.4111 16.4352Z" fill="white"/>
<path d="M94.3897 8.047L89.3533 23.4763H86.7152L83.8715 13.9459L81.0107 23.4763H78.3726L73.3362 8.047H76.5053L79.7773 18.0206L82.6038 8.047H85.0878L87.9143 18.0377L91.2205 8.047H94.3897Z" fill="white"/>
<path d="M106.261 23.4763H96.0342V8.06409H106.261V10.5362H98.9807V14.2187H106.176V16.6226H98.9807V20.8678H106.261V23.4763Z" fill="white"/>
<path d="M118.938 19.4187C118.938 19.9984 118.818 20.5439 118.561 21.0725C118.304 21.601 117.961 22.0613 117.499 22.4534C117.054 22.8455 116.505 23.1695 115.889 23.4082C115.272 23.6468 114.587 23.7662 113.833 23.7662C113.165 23.7662 112.565 23.7321 112.017 23.6468C111.486 23.5616 110.972 23.4423 110.51 23.2888C110.03 23.1183 109.585 22.9137 109.156 22.641C108.728 22.3852 108.283 22.0613 107.803 21.6862L109.927 19.538C110.544 20.0495 111.161 20.4075 111.743 20.6292C112.343 20.8338 112.976 20.9531 113.679 20.9531C113.97 20.9531 114.227 20.919 114.484 20.8338C114.741 20.7485 114.964 20.6462 115.135 20.4928C115.323 20.3564 115.477 20.1859 115.58 19.9984C115.683 19.8108 115.752 19.5892 115.752 19.3676C115.752 19.1289 115.7 18.9072 115.615 18.7197C115.529 18.5322 115.358 18.3446 115.135 18.1571C114.895 17.9695 114.587 17.7991 114.158 17.6115C113.747 17.424 113.216 17.2194 112.565 16.9807C112 16.7761 111.452 16.5374 110.921 16.2817C110.39 16.026 109.944 15.702 109.55 15.327C109.156 14.9519 108.848 14.5086 108.608 14.0142C108.368 13.5198 108.248 12.9231 108.248 12.2411C108.248 11.5592 108.385 10.9795 108.642 10.4339C108.899 9.88836 109.276 9.41099 109.722 9.01886C110.184 8.62674 110.715 8.31986 111.332 8.09822C111.949 7.87659 112.6 7.77429 113.319 7.77429C114.501 7.77429 115.512 7.92773 116.317 8.23461C117.122 8.54149 117.859 9.00181 118.492 9.58148L116.403 11.6785C116.009 11.3034 115.58 11.0136 115.101 10.826C114.621 10.6215 114.056 10.5192 113.422 10.5192C113.131 10.5192 112.857 10.5703 112.6 10.6556C112.343 10.7408 112.137 10.8601 111.949 11.0136C111.76 11.167 111.623 11.3375 111.52 11.5421C111.418 11.7467 111.349 11.9513 111.349 12.1729C111.349 12.4116 111.4 12.6332 111.503 12.8378C111.606 13.0424 111.777 13.2299 112.034 13.4175C112.274 13.605 112.6 13.7926 113.011 13.9801C113.422 14.1676 113.919 14.3722 114.535 14.5939C115.306 14.8666 115.974 15.1565 116.54 15.4804C117.088 15.8043 117.55 16.1624 117.893 16.5374C118.236 16.9296 118.492 17.3558 118.664 17.8332C118.852 18.2764 118.938 18.822 118.938 19.4187Z" fill="white"/>
<path d="M131.7 10.7237H127.418V23.4763H124.368V10.7237H120.086V8.06409H131.7V10.7237Z" fill="white"/>
<path d="M153.901 20.6973C153.131 21.635 152.188 22.3852 151.075 22.9307C149.961 23.4763 148.745 23.7661 147.426 23.7661C146.278 23.7661 145.199 23.5616 144.188 23.1353C143.178 22.7262 142.304 22.1465 141.55 21.4304C140.797 20.7144 140.214 19.8619 139.786 18.8902C139.358 17.9184 139.135 16.8784 139.135 15.7531C139.135 14.6279 139.358 13.5879 139.786 12.6161C140.214 11.6444 140.797 10.7919 141.55 10.0759C142.304 9.34275 143.178 8.78014 144.188 8.37096C145.199 7.96179 146.278 7.7572 147.426 7.7572C148.762 7.7572 149.979 8.02999 151.075 8.5926C152.171 9.13817 153.096 9.87127 153.833 10.7578L151.76 12.8719C151.28 12.1899 150.664 11.6444 149.91 11.2181C149.156 10.809 148.317 10.5873 147.426 10.5873C146.707 10.5873 146.021 10.7237 145.388 10.9965C144.754 11.2693 144.188 11.6444 143.709 12.1217C143.229 12.5991 142.852 13.1447 142.578 13.7584C142.304 14.3892 142.167 15.0541 142.167 15.7531C142.167 16.4522 142.304 17.1 142.578 17.7308C142.852 18.3616 143.229 18.9072 143.709 19.3675C144.188 19.8449 144.754 20.2029 145.388 20.4927C146.021 20.7655 146.707 20.9019 147.426 20.9019C148.385 20.9019 149.225 20.6803 149.961 20.2541C150.698 19.8278 151.315 19.2482 151.794 18.5492L153.901 20.6973Z" fill="white"/>
<path d="M171.323 15.7702C171.323 16.8784 171.101 17.9184 170.672 18.8902C170.244 19.8619 169.645 20.7144 168.908 21.4304C168.154 22.1465 167.281 22.7262 166.287 23.1353C165.293 23.5616 164.231 23.7661 163.118 23.7661C162.004 23.7661 160.942 23.5616 159.931 23.1353C158.938 22.7262 158.064 22.1465 157.31 21.4304C156.557 20.7144 155.974 19.8619 155.546 18.8902C155.118 17.9184 154.895 16.8784 154.895 15.7531C154.895 14.6279 155.118 13.5879 155.546 12.6161C155.974 11.6444 156.574 10.7919 157.31 10.0759C158.064 9.3598 158.938 8.79719 159.931 8.37096C160.925 7.96179 161.987 7.7572 163.118 7.7572C164.248 7.7572 165.293 7.96179 166.287 8.37096C167.281 8.78014 168.154 9.3598 168.908 10.0759C169.662 10.809 170.244 11.6444 170.672 12.6161C171.118 13.605 171.323 14.645 171.323 15.7702ZM168.325 15.7702C168.325 15.0712 168.188 14.4063 167.914 13.7755C167.64 13.1447 167.263 12.5991 166.801 12.1388C166.321 11.6614 165.773 11.3034 165.139 11.0135C164.505 10.7408 163.837 10.6044 163.118 10.6044C162.398 10.6044 161.713 10.7408 161.079 11.0135C160.445 11.2863 159.897 11.6614 159.418 12.1388C158.938 12.6161 158.578 13.1617 158.304 13.7755C158.03 14.4063 157.893 15.0712 157.893 15.7702C157.893 16.4692 158.03 17.1341 158.304 17.7649C158.578 18.3957 158.955 18.9413 159.418 19.4187C159.897 19.896 160.445 20.2541 161.079 20.5439C161.713 20.8167 162.398 20.9531 163.118 20.9531C163.837 20.9531 164.505 20.8167 165.139 20.5439C165.773 20.2711 166.321 19.896 166.801 19.4187C167.281 18.9413 167.64 18.3957 167.914 17.7649C168.188 17.1171 168.325 16.4522 168.325 15.7702Z" fill="white"/>
<path d="M187.443 15.7702C187.443 16.8443 187.255 17.8331 186.895 18.7708C186.535 19.7085 186.021 20.5268 185.388 21.2259C184.737 21.9249 183.966 22.4875 183.075 22.8796C182.184 23.2888 181.191 23.4934 180.146 23.4934H173.67V8.06409H180.146C181.208 8.06409 182.184 8.26867 183.075 8.67785C183.966 9.08702 184.737 9.64964 185.388 10.3316C186.039 11.0306 186.535 11.8489 186.895 12.7866C187.272 13.7073 187.443 14.7132 187.443 15.7702ZM184.411 15.685C184.428 14.9689 184.308 14.2869 184.086 13.6391C183.846 12.9912 183.52 12.4286 183.075 11.9512C182.63 11.4739 182.099 11.0817 181.465 10.809C180.831 10.5362 180.111 10.3998 179.306 10.3998H176.685V20.936H179.306C180.094 20.936 180.797 20.7996 181.43 20.5439C182.064 20.2882 182.595 19.9131 183.024 19.4528C183.469 18.9754 183.794 18.4298 184.034 17.799C184.274 17.1341 184.394 16.4522 184.411 15.685Z" fill="white"/>
<path d="M200 23.4763H189.773V8.06409H200V10.5362H192.719V14.2187H199.914V16.6226H192.719V20.8678H200V23.4763Z" fill="white"/>
</g>
<defs>
<clipPath id="clip0_1092_68">
<rect width="200" height="31.4894" fill="white"/>
</clipPath>
</defs>
</svg>
