<svg width="176" height="48" viewBox="0 0 176 48" fill="none" xmlns="http://www.w3.org/2000/svg">
<g clip-path="url(#clip0_459_6487)">
<path d="M23.1878 28.7903H15.7304C13.1932 28.7903 11.1365 26.6423 11.1365 23.9924C11.1365 21.3425 13.1932 19.1945 15.7304 19.1945H23.1878C25.725 19.1276 27.7321 16.9249 27.668 14.275C27.6069 11.7193 25.6377 9.65963 23.1878 9.59574H15.7304C13.2048 9.58053 11.1657 7.43564 11.1628 4.79787V0H0V47.9848H11.1628V43.2021C11.1569 40.5583 13.199 38.4073 15.7304 38.389H23.1878C25.725 38.389 27.7817 36.2411 27.7817 33.5912C27.7817 30.9412 25.725 28.7933 23.1878 28.7933" fill="white"/>
<path d="M35.1429 0H23.1004V4.79787C23.1004 7.44476 25.1541 9.5927 27.6884 9.59574H35.1371C37.6743 9.59574 39.7309 11.7437 39.7309 14.3936C39.7309 17.0435 37.6743 19.1915 35.1371 19.1915H27.6913C25.1541 19.1915 23.0975 21.3394 23.0975 23.9894C23.0975 26.6393 25.1541 28.7872 27.6913 28.7872H35.14C37.6772 28.7872 39.7338 30.9352 39.7338 33.5851C39.7338 36.235 37.6772 38.383 35.14 38.383H27.6913C25.1512 38.383 23.0946 40.5339 23.0975 43.1869C23.0975 43.193 23.0975 43.196 23.0975 43.2021V48H50.8762V0H35.14H35.1429Z" fill="white"/>
<path d="M54.9894 9.79651H77.583V16.9036H70.6237V38.5138H61.9516V16.9036H54.9894V9.79651Z" fill="white"/>
<path d="M77.4869 9.79651H86.1998V27.7467C86.1998 28.9636 86.2376 30.2232 87.2106 31.1998C87.9097 31.9695 88.9584 32.2555 89.9722 32.2555C90.983 32.2951 91.9676 31.933 92.7308 31.2394C93.7445 30.2232 93.7824 28.9667 93.7824 27.7467V9.79651H102.522V25.1089C102.522 28.4008 102.522 32.6632 99.2939 35.873C97.3101 37.8231 94.1203 39.2835 89.8819 39.2835C85.6434 39.2835 82.3371 37.9022 80.3154 35.873C77.5917 33.1104 77.5539 29.9038 77.4752 26.8979L77.4869 9.79651Z" fill="white"/>
<path d="M102.42 9.79651H125.013V16.9036H118.054V38.5138H109.382V16.9036H102.42V9.79651Z" fill="white"/>
<path d="M124.92 9.79651H133.63V27.7467C133.63 28.9636 133.671 30.2232 134.641 31.1998C135.34 31.9695 136.388 32.2555 137.402 32.2555C138.413 32.2951 139.401 31.933 140.164 31.2394C141.175 30.2232 141.212 28.9667 141.212 27.7467V9.79651H149.952V25.1089C149.952 28.4008 149.952 32.6632 146.724 35.873C144.74 37.8231 141.55 39.2835 137.312 39.2835C133.073 39.2835 129.767 37.9022 127.746 35.873C125.025 33.1104 124.984 29.9038 124.908 26.8979L124.92 9.79651Z" fill="white"/>
<path d="M155.687 28.5986C156.465 29.8582 157.126 30.9139 159.498 31.7262C160.739 32.1582 162.041 32.3773 163.349 32.3773C164.048 32.3773 167.471 32.2951 167.471 30.2233C167.471 30.0225 167.471 28.9637 165.953 28.4374C164.98 28.0723 159.926 27.1383 158.796 26.8523C156.27 26.1617 151.329 24.537 151.329 18.4857C151.332 17.2109 151.597 15.9483 152.107 14.7891C153.899 10.5663 158.516 8.9021 163.468 8.9021C166.617 8.9021 169.495 9.55013 171.75 10.7275C173.812 11.7833 174.823 12.9211 175.796 13.9768L170.349 18.7321C169.807 17.938 169.087 17.2961 168.248 16.8641C166.652 16.0517 164.552 15.8205 163.153 15.8205C161.674 15.8205 160.042 16.216 160.042 17.6764C160.042 19.0576 161.441 19.4227 163.829 19.87C169.947 20.9683 176 22.1031 176 29.2132C176.038 31.6197 175.158 33.9441 173.55 35.6692C170.089 39.3657 164.566 39.3657 163.063 39.3657C160.908 39.3961 158.761 39.1101 156.684 38.5138C152.329 37.2147 150.307 34.653 149.063 33.0709L155.687 28.5986Z" fill="white"/>
</g>
<defs>
<clipPath id="clip0_459_6487">
<rect width="176" height="48" fill="white"/>
</clipPath>
</defs>
</svg>
