<svg xmlns="http://www.w3.org/2000/svg" width="47" height="48" viewBox="0 0 47 48" fill="none">
  <circle cx="23.5" cy="24" r="22.5" stroke="#D8D8D8" stroke-width="2"/>
  <path d="M22.5 46.5C25.9947 46.5 28.8755 43.6297 30.8232 39.6416C32.8034 35.5869 34 30.0554 34 24C34 17.9446 32.8034 12.4131 30.8232 8.35837C28.8755 4.37032 25.9947 1.5 22.5 1.5C19.0053 1.5 16.1245 4.37032 14.1768 8.35837C12.1966 12.4131 11 17.9446 11 24C11 30.0554 12.1966 35.5869 14.1768 39.6416C16.1245 43.6297 19.0053 46.5 22.5 46.5Z" stroke="#D8D8D8" stroke-width="2"/>
  <mask id="mask0_472_70" style="mask-type:alpha" maskUnits="userSpaceOnUse" x="0" y="0" width="47" height="48">
    <circle cx="23.5" cy="24" r="22.5" fill="#D9D9D9" stroke="#D8D8D8" stroke-width="2"/>
  </mask>
  <g mask="url(#mask0_472_70)">
    <path d="M-4.5897e-07 2C-6.11729e-07 5.49473 2.87031 8.37553 6.85837 10.3232C10.9131 12.3034 16.4446 13.5 22.5 13.5C28.5554 13.5 34.0869 12.3034 38.1416 10.3232C42.1297 8.37553 45 5.49473 45 2C45 -1.49473 42.1297 -4.37553 38.1416 -6.32319C34.0869 -8.30343 28.5554 -9.5 22.5 -9.5C16.4446 -9.5 10.9131 -8.30343 6.85837 -6.32319C2.87032 -4.37554 -3.0621e-07 -1.49473 -4.5897e-07 2Z" stroke="#D8D8D8" stroke-width="2"/>
  </g>
  <mask id="mask1_472_70" style="mask-type:alpha" maskUnits="userSpaceOnUse" x="0" y="0" width="47" height="48">
    <circle cx="23.5" cy="24" r="22.5" transform="rotate(-180 23.5 24)" fill="#D9D9D9" stroke="#D8D8D8" stroke-width="2"/>
  </mask>
  <g mask="url(#mask1_472_70)">
    <path d="M47 46C47 42.5053 44.1297 39.6245 40.1416 37.6768C36.0869 35.6966 30.5554 34.5 24.5 34.5C18.4446 34.5 12.9131 35.6966 8.85837 37.6768C4.87032 39.6245 2 42.5053 2 46C2 49.4947 4.87032 52.3755 8.85837 54.3232C12.9131 56.3034 18.4446 57.5 24.5 57.5C30.5554 57.5 36.0869 56.3034 40.1416 54.3232C44.1297 52.3755 47 49.4947 47 46Z" stroke="#D8D8D8" stroke-width="2"/>
  </g>
  <path d="M23 2V46" stroke="#D8D8D8" stroke-width="2"/>
  <path d="M45 24L1 24" stroke="#D8D8D8" stroke-width="2"/>
</svg>